<svg id="svg" version="1.1" xmlns="http://www.w3.org/2000/svg" xmlns:xlink="http://www.w3.org/1999/xlink" width="40" height="35" viewBox="0, 0, 400,358.66666666666663"><g id="svgg"><path id="path0" d="M193.363 16.536 C 183.669 17.047,181.455 17.232,180.795 17.585 C 180.433 17.779,179.682 17.937,179.127 17.936 C 177.762 17.935,168.970 19.353,168.072 19.719 C 167.677 19.880,165.740 20.352,163.767 20.770 C 160.399 21.482,152.081 23.758,150.493 24.402 C 150.099 24.562,149.453 24.782,149.058 24.889 C 148.451 25.055,146.722 25.673,142.960 27.068 C 142.565 27.214,141.758 27.543,141.166 27.800 C 140.574 28.056,139.686 28.434,139.193 28.641 C 130.902 32.111,124.484 35.352,124.484 36.069 C 124.484 36.593,125.464 38.369,125.960 38.744 C 126.091 38.843,126.463 39.489,126.789 40.179 C 128.213 43.205,129.167 44.843,129.503 44.843 C 129.702 44.843,129.869 45.126,129.873 45.471 C 129.878 45.816,130.197 46.502,130.583 46.996 C 130.969 47.489,131.293 48.054,131.304 48.251 C 131.314 48.448,131.714 49.053,132.191 49.596 L 133.058 50.581 137.308 48.519 C 141.233 46.614,144.280 45.230,146.278 44.443 C 146.722 44.269,147.448 43.968,147.892 43.775 C 150.132 42.803,154.114 41.428,157.489 40.462 C 159.561 39.869,161.578 39.244,161.973 39.074 C 162.368 38.904,164.143 38.430,165.919 38.022 C 167.695 37.614,169.955 37.052,170.942 36.773 C 171.928 36.495,174.350 36.017,176.323 35.713 C 178.296 35.409,181.040 34.983,182.422 34.767 C 185.064 34.353,190.178 33.882,196.771 33.445 L 200.717 33.184 200.717 24.753 L 200.717 16.323 199.641 16.292 C 199.049 16.276,196.224 16.385,193.363 16.536 M341.638 95.454 C 340.133 96.011,330.887 101.357,328.351 103.136 L 327.554 103.695 328.297 105.031 C 328.705 105.766,329.512 107.175,330.090 108.161 C 331.428 110.446,337.677 123.182,338.275 124.843 C 338.524 125.534,338.866 126.422,339.035 126.816 C 339.936 128.919,341.928 134.712,342.612 137.220 C 343.043 138.798,343.527 140.413,343.688 140.807 C 343.850 141.202,344.063 141.928,344.163 142.422 C 344.263 142.915,344.521 143.964,344.736 144.753 C 346.277 150.402,348.632 164.804,348.678 168.862 C 348.690 169.889,348.887 171.140,349.116 171.642 L 349.532 172.556 357.780 172.556 L 366.027 172.556 365.782 168.161 C 365.503 163.164,364.598 154.869,364.070 152.466 C 363.874 151.578,363.581 150.045,363.417 149.058 C 362.852 145.647,361.607 140.534,360.010 135.067 C 359.491 133.291,358.981 131.435,358.876 130.942 C 358.772 130.448,358.594 129.803,358.482 129.507 C 358.369 129.211,357.751 127.516,357.108 125.740 C 353.695 116.316,349.507 107.127,345.118 99.438 C 342.974 95.682,342.497 95.136,341.638 95.454 M38.246 175.976 C 37.467 176.754,37.218 178.497,37.447 181.562 C 37.556 183.021,37.798 187.049,37.984 190.513 C 38.354 197.397,39.377 207.218,39.813 208.072 C 39.964 208.368,40.203 209.417,40.344 210.404 C 40.768 213.382,41.971 219.325,42.304 220.090 C 42.476 220.484,42.977 222.260,43.418 224.036 C 44.481 228.320,46.658 235.399,47.748 238.117 C 47.926 238.561,48.233 239.327,48.430 239.821 C 49.503 242.503,49.661 242.886,50.859 245.740 C 52.502 249.652,55.806 256.143,56.155 256.143 C 56.391 256.143,58.746 254.912,61.387 253.406 C 64.028 251.901,66.699 250.377,67.324 250.021 C 67.949 249.665,69.017 249.009,69.697 248.563 L 70.934 247.752 69.215 244.145 C 66.216 237.850,65.291 235.783,65.291 235.370 C 65.291 235.149,65.133 234.688,64.938 234.345 C 64.413 233.417,61.964 226.261,60.981 222.780 C 60.786 222.090,60.286 220.314,59.869 218.834 C 56.916 208.344,55.321 197.294,55.028 185.291 C 54.843 177.720,54.720 176.253,54.242 175.874 C 53.329 175.153,38.978 175.244,38.246 175.976 M275.047 308.549 C 270.084 311.639,258.172 317.101,251.300 319.440 C 249.130 320.178,247.031 320.914,246.637 321.074 C 246.242 321.234,244.547 321.718,242.870 322.149 C 241.193 322.581,239.082 323.156,238.179 323.427 C 236.589 323.904,229.481 325.448,225.830 326.109 C 221.999 326.803,214.458 327.551,209.052 327.773 L 203.396 328.005 203.492 336.648 L 203.587 345.291 204.664 345.193 C 205.256 345.139,208.565 344.948,212.018 344.768 C 218.222 344.446,226.780 343.576,229.941 342.947 C 234.294 342.081,241.555 340.438,244.126 339.738 C 245.704 339.308,247.561 338.825,248.251 338.665 C 249.688 338.331,258.114 335.589,259.193 335.103 C 259.587 334.926,260.475 334.578,261.166 334.329 C 261.857 334.081,263.229 333.526,264.215 333.097 C 265.202 332.668,266.897 331.939,267.982 331.477 C 270.958 330.210,280.396 325.486,283.127 323.896 C 285.852 322.310,285.842 322.379,283.822 319.103 C 283.214 318.117,282.413 316.744,282.043 316.054 C 281.673 315.363,280.920 313.991,280.370 313.004 C 279.820 312.018,279.136 310.767,278.851 310.224 C 278.566 309.682,278.183 309.238,278.001 309.238 C 277.818 309.238,277.668 309.015,277.668 308.743 C 277.668 307.546,276.766 307.480,275.047 308.549 " stroke="none" fill="#d9c13f" fill-rule="evenodd"></path><path id="path1" d="M203.408 24.778 L 203.408 33.318 207.265 33.492 C 215.790 33.875,218.687 34.091,219.372 34.396 C 219.767 34.572,222.188 34.983,224.753 35.309 C 229.391 35.899,236.460 37.402,241.256 38.817 C 242.637 39.224,244.574 39.792,245.561 40.078 C 251.809 41.890,260.337 45.285,266.616 48.461 C 268.924 49.628,271.022 50.579,271.280 50.574 C 271.684 50.565,274.674 45.665,278.139 39.333 C 278.694 38.319,279.299 37.335,279.484 37.148 C 280.463 36.156,279.693 35.569,273.453 32.553 C 269.951 30.860,265.794 28.972,264.215 28.359 C 262.637 27.745,261.022 27.100,260.628 26.926 C 260.233 26.751,258.619 26.175,257.040 25.644 C 255.462 25.113,253.848 24.551,253.453 24.395 C 251.786 23.735,243.494 21.470,240.179 20.770 C 238.206 20.352,236.269 19.882,235.874 19.725 C 234.209 19.061,220.790 17.228,217.561 17.223 C 216.564 17.221,215.596 17.077,215.408 16.903 C 215.221 16.728,212.444 16.508,209.238 16.412 L 203.408 16.238 203.408 24.778 M61.058 95.857 C 60.822 96.093,60.628 96.400,60.628 96.537 C 60.628 96.675,59.996 97.827,59.225 99.097 C 57.713 101.586,52.674 111.576,51.306 114.798 C 50.845 115.883,50.176 117.417,49.820 118.206 C 48.857 120.339,47.053 125.269,45.750 129.327 C 45.116 131.300,44.505 133.157,44.391 133.453 C 44.277 133.749,44.104 134.395,44.006 134.888 C 43.909 135.381,43.479 137.076,43.051 138.655 C 42.623 140.233,41.789 143.946,41.198 146.906 C 40.607 149.865,39.983 152.771,39.810 153.363 C 39.281 155.173,38.360 164.253,38.281 168.430 L 38.206 172.377 46.304 172.473 L 54.401 172.569 54.785 171.755 C 54.997 171.308,55.360 168.682,55.593 165.919 C 56.333 157.131,57.837 149.507,61.043 138.296 C 63.630 129.252,69.126 116.382,73.803 108.420 C 74.646 106.984,75.336 105.705,75.336 105.578 C 75.336 105.452,75.603 105.053,75.930 104.692 C 76.539 104.019,75.835 102.601,74.893 102.601 C 74.710 102.601,73.564 102.012,72.347 101.292 C 61.524 94.892,61.861 95.054,61.058 95.857 M349.417 182.759 C 349.417 186.595,349.280 189.818,349.113 189.921 C 348.946 190.025,348.705 191.689,348.578 193.620 C 348.196 199.446,346.829 209.168,346.169 210.762 C 346.005 211.157,345.773 212.045,345.654 212.735 C 345.322 214.647,344.019 219.997,343.688 220.807 C 343.527 221.202,343.043 222.816,342.612 224.395 C 341.600 228.104,339.572 233.621,337.665 237.848 C 337.176 238.933,336.573 240.386,336.326 241.076 C 336.079 241.767,335.297 243.424,334.589 244.758 C 333.030 247.693,333.042 247.731,336.064 249.419 C 337.390 250.161,338.717 250.917,339.013 251.099 C 341.881 252.869,347.820 256.143,348.163 256.143 C 348.898 256.143,357.414 235.812,358.756 230.852 C 358.916 230.260,359.396 228.484,359.823 226.906 C 360.249 225.327,360.734 223.713,360.900 223.318 C 361.066 222.924,361.280 222.197,361.376 221.704 C 361.472 221.211,362.064 218.466,362.691 215.605 C 364.651 206.670,365.394 201.045,365.961 190.852 C 366.153 187.399,366.395 183.061,366.499 181.212 C 366.623 179.010,366.540 177.494,366.260 176.818 L 365.832 175.785 357.625 175.785 L 349.417 175.785 349.417 182.759 M126.381 307.892 C 126.054 308.320,120.889 317.329,119.193 320.430 C 118.749 321.242,118.386 322.028,118.386 322.177 C 118.386 322.762,131.413 329.606,136.323 331.601 C 137.211 331.962,138.422 332.469,139.013 332.728 C 139.605 332.986,140.534 333.376,141.076 333.595 C 141.619 333.813,142.426 334.141,142.870 334.323 C 146.411 335.782,153.914 338.163,158.744 339.362 C 160.520 339.803,162.296 340.305,162.691 340.477 C 163.085 340.649,165.184 341.123,167.354 341.529 C 169.525 341.936,171.704 342.365,172.197 342.483 C 172.691 342.601,173.417 342.741,173.812 342.794 C 174.206 342.847,176.063 343.138,177.937 343.441 C 182.142 344.120,189.465 344.686,195.874 344.827 L 200.717 344.933 200.717 336.502 L 200.717 328.072 195.254 327.824 C 189.925 327.582,181.560 326.747,178.064 326.108 C 160.112 322.828,143.013 316.755,129.444 308.841 C 126.728 307.256,126.841 307.291,126.381 307.892 " stroke="none" fill="#db2593" fill-rule="evenodd"></path><path id="path2" d="M187.449 3.955 C 187.584 4.173,186.267 4.326,183.967 4.360 C 179.502 4.426,179.490 4.427,179.158 4.758 C 179.013 4.903,178.123 5.022,177.181 5.022 C 176.239 5.022,175.369 5.184,175.247 5.381 C 175.125 5.578,173.985 5.740,172.714 5.740 C 171.413 5.740,170.404 5.897,170.404 6.099 C 170.404 6.296,169.677 6.457,168.789 6.457 C 167.901 6.457,167.175 6.598,167.175 6.770 C 167.175 6.942,165.886 7.195,164.311 7.332 C 162.736 7.469,161.354 7.732,161.241 7.916 C 161.127 8.101,160.407 8.251,159.641 8.251 C 158.875 8.251,158.149 8.413,158.027 8.610 C 157.905 8.807,157.340 8.969,156.771 8.969 C 156.203 8.969,155.638 9.130,155.516 9.327 C 155.394 9.525,154.819 9.686,154.239 9.686 C 153.659 9.686,153.184 9.848,153.184 10.045 C 153.184 10.242,152.619 10.404,151.928 10.404 C 151.238 10.404,150.673 10.565,150.673 10.762 C 150.673 10.960,150.188 11.121,149.596 11.121 C 149.004 11.121,148.520 11.265,148.520 11.441 C 148.520 11.616,147.996 11.844,147.354 11.947 C 145.858 12.186,145.199 12.349,144.753 12.592 C 144.556 12.700,143.668 13.000,142.780 13.260 C 140.475 13.934,139.193 14.483,139.193 14.796 C 139.193 14.945,138.868 15.067,138.470 15.067 C 138.073 15.067,137.468 15.215,137.125 15.396 C 136.071 15.952,134.062 16.754,132.556 17.221 C 131.767 17.465,130.968 17.807,130.780 17.981 C 130.593 18.154,130.149 18.296,129.794 18.296 C 129.439 18.296,129.148 18.457,129.148 18.655 C 129.148 18.852,128.825 19.013,128.430 19.013 C 128.036 19.013,127.713 19.175,127.713 19.372 C 127.713 19.570,127.390 19.731,126.996 19.731 C 126.601 19.731,126.278 19.892,126.278 20.090 C 126.278 20.287,126.034 20.448,125.735 20.448 C 125.436 20.448,124.912 20.596,124.569 20.776 C 124.227 20.957,122.415 21.856,120.543 22.775 C 118.672 23.694,117.058 24.556,116.956 24.689 C 116.854 24.823,115.883 25.391,114.798 25.950 C 111.732 27.531,109.058 29.181,109.058 29.493 C 109.058 29.648,108.735 29.776,108.341 29.776 C 107.946 29.776,107.623 29.937,107.623 30.135 C 107.623 30.332,107.381 30.493,107.085 30.493 C 106.789 30.493,106.547 30.624,106.547 30.783 C 106.547 30.942,105.901 31.358,105.112 31.706 C 104.323 32.054,103.677 32.489,103.677 32.672 C 103.677 32.855,103.460 33.004,103.195 33.004 C 102.929 33.004,102.420 33.327,102.063 33.722 C 101.706 34.117,101.232 34.439,101.010 34.439 C 100.788 34.439,100.374 34.762,100.090 35.157 C 99.805 35.552,99.391 35.874,99.169 35.874 C 98.948 35.874,98.297 36.278,97.724 36.771 C 97.151 37.264,96.545 37.667,96.377 37.668 C 96.210 37.668,95.620 38.152,95.067 38.744 C 94.514 39.336,93.885 39.821,93.668 39.821 C 93.451 39.821,93.274 39.982,93.274 40.179 C 93.274 40.377,93.026 40.538,92.724 40.538 C 92.422 40.538,92.082 40.780,91.968 41.076 C 91.855 41.372,91.537 41.614,91.262 41.614 C 90.987 41.614,90.762 41.776,90.762 41.973 C 90.762 42.170,90.619 42.332,90.444 42.332 C 90.268 42.332,89.208 43.220,88.088 44.305 C 86.967 45.390,85.909 46.278,85.736 46.278 C 85.563 46.278,84.807 46.934,84.056 47.736 C 81.941 49.994,81.934 50.001,80.872 50.762 C 79.494 51.750,78.206 53.057,78.206 53.469 C 78.206 53.658,77.964 53.812,77.668 53.812 C 77.372 53.812,77.130 54.015,77.130 54.265 C 77.130 54.514,76.700 55.038,76.174 55.431 C 74.354 56.788,72.466 58.780,72.466 59.344 C 72.466 59.656,72.312 59.910,72.124 59.910 C 71.936 59.910,71.089 60.634,70.241 61.519 C 68.118 63.736,67.803 64.129,67.803 64.559 C 67.803 64.764,67.561 64.933,67.265 64.933 C 66.969 64.933,66.726 65.089,66.726 65.280 C 66.726 65.470,66.156 66.197,65.459 66.894 C 64.762 67.591,64.276 68.161,64.379 68.161 C 64.604 68.161,63.716 69.271,62.242 70.830 C 61.650 71.456,61.126 72.161,61.076 72.397 C 61.027 72.632,60.664 73.148,60.269 73.543 C 59.874 73.937,59.549 74.381,59.546 74.529 C 59.543 74.677,59.058 75.345,58.470 76.013 C 57.881 76.681,57.399 77.342,57.399 77.483 C 57.399 77.623,57.117 78.072,56.771 78.480 C 56.426 78.888,55.874 79.545,55.545 79.939 C 55.216 80.334,55.041 80.751,55.157 80.867 C 55.272 80.982,55.178 81.076,54.948 81.076 C 54.717 81.076,54.529 81.363,54.529 81.715 C 54.529 82.066,54.206 82.586,53.812 82.870 C 53.417 83.154,53.094 83.594,53.094 83.846 C 53.094 84.098,52.933 84.305,52.735 84.305 C 52.538 84.305,52.377 84.547,52.377 84.843 C 52.377 85.139,52.255 85.381,52.106 85.381 C 51.956 85.381,51.609 85.890,51.334 86.511 C 51.059 87.133,50.529 87.946,50.157 88.318 C 49.785 88.690,49.559 89.121,49.654 89.275 C 49.749 89.429,49.513 89.782,49.129 90.059 C 48.745 90.336,48.430 90.771,48.430 91.026 C 48.430 91.460,47.753 92.874,47.354 93.274 C 47.256 93.372,46.834 94.099,46.418 94.888 C 44.716 98.117,44.292 98.840,44.036 98.954 C 43.888 99.019,43.767 99.304,43.767 99.586 C 43.767 100.060,43.108 101.466,42.691 101.883 C 42.269 102.305,41.614 103.709,41.614 104.191 C 41.614 104.480,41.211 105.474,40.717 106.402 C 40.224 107.330,39.821 108.307,39.821 108.574 C 39.821 108.840,39.688 109.058,39.527 109.058 C 39.365 109.058,39.013 109.865,38.744 110.852 C 38.476 111.839,38.142 112.646,38.002 112.646 C 37.862 112.646,37.533 113.372,37.271 114.260 C 37.009 115.148,36.641 115.874,36.454 115.874 C 36.267 115.874,36.213 115.974,36.335 116.096 C 36.457 116.218,36.242 117.146,35.857 118.159 C 35.472 119.171,35.157 120.283,35.157 120.628 C 35.157 120.973,34.996 121.256,34.798 121.256 C 34.601 121.256,34.439 121.650,34.439 122.131 C 34.439 122.613,34.278 123.107,34.081 123.229 C 33.883 123.351,33.722 123.844,33.722 124.326 C 33.722 124.808,33.561 125.202,33.363 125.202 C 33.166 125.202,33.004 125.596,33.004 126.077 C 33.004 126.559,32.843 127.053,32.646 127.175 C 32.448 127.297,32.287 127.781,32.287 128.251 C 32.287 128.721,32.126 129.205,31.928 129.327 C 31.731 129.449,31.567 129.903,31.564 130.335 C 31.561 130.767,31.326 131.767,31.042 132.556 C 30.757 133.345,30.518 134.587,30.509 135.315 C 30.500 136.043,30.332 136.739,30.135 136.861 C 29.937 136.983,29.776 137.548,29.776 138.117 C 29.776 138.685,29.614 139.250,29.417 139.372 C 29.220 139.494,29.058 140.221,29.058 140.987 C 29.058 141.752,28.897 142.479,28.700 142.601 C 28.502 142.723,28.341 143.449,28.341 144.215 C 28.341 144.981,28.179 145.708,27.982 145.830 C 27.785 145.952,27.623 146.736,27.623 147.573 C 27.623 148.410,27.475 149.248,27.295 149.435 C 27.114 149.622,26.876 150.825,26.765 152.108 C 26.654 153.390,26.455 155.247,26.323 156.233 C 26.190 157.220,26.015 159.924,25.935 162.242 C 25.852 164.601,25.635 166.457,25.442 166.457 C 25.227 166.457,25.106 171.644,25.121 180.269 C 25.135 188.791,25.275 194.081,25.487 194.081 C 25.681 194.081,25.830 195.606,25.830 197.608 C 25.830 199.549,25.927 201.234,26.046 201.353 C 26.166 201.472,26.328 202.427,26.408 203.475 C 26.785 208.457,26.992 210.071,27.295 210.386 C 27.475 210.573,27.623 211.430,27.623 212.290 C 27.623 213.241,27.764 213.767,27.982 213.632 C 28.205 213.495,28.341 214.167,28.341 215.405 C 28.341 216.502,28.502 217.399,28.700 217.399 C 28.897 217.399,29.058 218.054,29.058 218.855 C 29.058 219.735,29.200 220.224,29.417 220.090 C 29.636 219.954,29.776 220.504,29.776 221.503 C 29.776 222.403,29.916 223.139,30.088 223.139 C 30.260 223.139,30.490 223.825,30.600 224.664 C 30.811 226.268,30.953 226.905,31.517 228.762 C 31.707 229.389,31.770 229.994,31.656 230.108 C 31.543 230.221,31.638 230.314,31.868 230.314 C 32.099 230.314,32.287 230.717,32.287 231.211 C 32.287 231.704,32.448 232.108,32.646 232.108 C 32.843 232.108,33.004 232.450,33.004 232.868 C 33.004 233.903,34.505 238.206,34.866 238.206 C 35.026 238.206,35.157 238.691,35.157 239.283 C 35.157 239.874,35.318 240.359,35.516 240.359 C 35.713 240.359,35.875 240.722,35.877 241.166 C 35.878 241.610,36.120 242.435,36.415 243.001 C 36.710 243.566,36.951 244.323,36.951 244.684 C 36.951 245.044,37.112 245.439,37.309 245.561 C 37.507 245.682,37.668 246.096,37.668 246.479 C 37.668 246.862,37.830 247.175,38.027 247.175 C 38.224 247.175,38.386 247.578,38.386 248.072 C 38.386 248.565,38.547 248.969,38.744 248.969 C 38.942 248.969,39.103 249.291,39.103 249.686 C 39.103 250.081,39.265 250.404,39.462 250.404 C 39.659 250.404,39.821 250.729,39.821 251.126 C 39.821 251.523,39.972 252.129,40.157 252.471 C 40.341 252.814,40.941 254.063,41.489 255.247 C 42.037 256.430,42.612 257.453,42.767 257.519 C 42.922 257.584,43.049 257.948,43.049 258.326 C 43.049 258.704,43.211 259.013,43.408 259.013 C 43.605 259.013,43.767 259.336,43.767 259.731 C 43.767 260.126,43.889 260.448,44.038 260.448 C 44.187 260.448,44.530 260.973,44.800 261.614 C 45.811 264.016,47.195 266.625,47.802 267.278 C 48.148 267.649,48.430 268.201,48.430 268.505 C 48.430 268.809,48.565 269.058,48.730 269.058 C 48.894 269.058,49.499 269.987,50.075 271.121 C 50.650 272.256,51.242 273.238,51.390 273.303 C 51.538 273.369,51.659 273.652,51.659 273.931 C 51.659 274.211,51.821 274.439,52.018 274.439 C 52.215 274.439,52.377 274.646,52.377 274.898 C 52.377 275.151,52.700 275.590,53.094 275.874 C 53.489 276.159,53.812 276.525,53.812 276.688 C 53.812 276.852,54.375 277.866,55.064 278.943 C 55.753 280.020,56.310 280.989,56.302 281.097 C 56.294 281.205,56.780 281.753,57.381 282.315 C 57.983 282.877,58.475 283.595,58.475 283.911 C 58.475 284.226,58.602 284.484,58.757 284.484 C 58.912 284.484,59.344 285.009,59.718 285.650 C 60.092 286.291,60.691 287.077,61.051 287.396 C 61.410 287.715,61.704 288.086,61.704 288.220 C 61.704 288.354,62.067 288.829,62.511 289.275 C 62.955 289.722,63.722 290.634,64.215 291.302 C 64.709 291.970,65.879 293.288,66.816 294.229 C 67.753 295.171,68.520 296.128,68.520 296.356 C 68.520 296.584,69.771 298.034,71.300 299.578 C 72.830 301.121,74.242 302.560,74.439 302.774 C 75.646 304.086,83.626 311.749,83.786 311.749 C 83.892 311.749,84.354 312.112,84.813 312.556 C 86.167 313.865,88.388 315.796,89.868 316.951 C 90.627 317.543,91.450 318.229,91.697 318.475 C 91.944 318.722,92.246 318.924,92.367 318.924 C 92.489 318.924,92.992 319.327,93.486 319.821 C 93.979 320.314,94.516 320.717,94.680 320.717 C 94.843 320.717,95.552 321.242,96.254 321.883 C 96.957 322.525,98.147 323.370,98.900 323.762 C 99.653 324.154,100.513 324.719,100.812 325.017 C 101.448 325.653,102.331 326.230,103.946 327.064 C 104.587 327.395,105.112 327.798,105.112 327.959 C 105.112 328.120,105.396 328.251,105.743 328.251 C 106.090 328.251,106.576 328.574,106.823 328.969 C 107.069 329.363,107.511 329.686,107.806 329.686 C 108.100 329.686,108.341 329.822,108.341 329.988 C 108.341 330.155,109.108 330.677,110.045 331.149 C 110.982 331.622,111.878 332.212,112.036 332.461 C 112.194 332.711,112.559 332.915,112.848 332.915 C 113.332 332.915,114.736 333.570,115.157 333.992 C 115.256 334.091,115.821 334.413,116.413 334.709 C 117.004 335.004,117.570 335.333,117.668 335.439 C 117.767 335.545,118.816 336.111,120.000 336.695 C 121.184 337.280,122.206 337.879,122.272 338.027 C 122.338 338.175,122.701 338.296,123.079 338.296 C 123.457 338.296,123.769 338.498,123.772 338.744 C 123.776 339.043,123.894 339.013,124.126 338.655 C 124.317 338.359,124.476 338.291,124.479 338.504 C 124.484 338.895,125.124 339.273,127.265 340.147 C 127.906 340.409,128.430 340.746,128.430 340.895 C 128.430 341.044,128.744 341.166,129.127 341.166 C 129.510 341.166,129.914 341.313,130.026 341.493 C 130.137 341.674,130.873 341.930,131.661 342.063 C 132.449 342.196,133.094 342.452,133.094 342.632 C 133.094 342.812,133.408 342.960,133.790 342.960 C 134.173 342.960,134.587 343.121,134.709 343.318 C 134.830 343.516,135.324 343.677,135.806 343.677 C 136.288 343.677,136.682 343.821,136.682 343.996 C 136.682 344.172,137.408 344.530,138.296 344.792 C 139.184 345.054,139.910 345.395,139.910 345.549 C 139.910 345.703,140.193 345.832,140.538 345.835 C 140.883 345.838,141.892 346.093,142.780 346.402 C 143.668 346.711,144.677 346.985,145.022 347.011 C 145.368 347.037,145.650 347.186,145.650 347.341 C 145.650 347.496,146.135 347.623,146.726 347.623 C 147.318 347.623,147.803 347.785,147.803 347.982 C 147.803 348.179,148.287 348.341,148.879 348.341 C 149.471 348.341,149.955 348.502,149.955 348.700 C 149.955 348.897,150.439 349.058,151.031 349.058 C 151.623 349.058,152.108 349.220,152.108 349.417 C 152.108 349.614,152.502 349.776,152.983 349.776 C 153.465 349.776,153.948 349.919,154.056 350.095 C 154.258 350.421,154.656 350.512,159.193 351.268 C 160.623 351.507,161.794 351.834,161.794 351.994 C 161.794 352.155,162.682 352.287,163.767 352.287 C 164.852 352.287,165.740 352.448,165.740 352.646 C 165.740 352.843,166.386 353.004,167.175 353.004 C 167.964 353.004,168.610 353.166,168.610 353.363 C 168.610 353.561,169.498 353.722,170.583 353.722 C 171.668 353.722,172.556 353.870,172.556 354.051 C 172.556 354.232,173.646 354.466,174.978 354.571 C 176.309 354.676,178.771 354.956,180.448 355.194 C 185.879 355.965,224.931 355.668,224.433 354.859 C 224.352 354.727,225.440 354.566,226.851 354.502 C 228.262 354.438,229.471 354.236,229.537 354.054 C 229.602 353.871,230.531 353.722,231.599 353.722 C 232.668 353.722,233.543 353.561,233.543 353.363 C 233.543 353.166,234.269 353.004,235.157 353.004 C 236.045 353.004,236.771 352.843,236.771 352.646 C 236.771 352.448,237.588 352.287,238.586 352.287 C 239.584 352.287,240.315 352.148,240.210 351.978 C 240.105 351.809,240.943 351.566,242.073 351.438 C 244.853 351.125,245.319 351.034,245.610 350.743 C 245.747 350.606,246.307 350.493,246.855 350.493 C 247.402 350.493,247.950 350.332,248.072 350.135 C 248.194 349.937,248.768 349.776,249.349 349.776 C 249.929 349.776,250.404 349.614,250.404 349.417 C 250.404 349.220,250.969 349.058,251.659 349.058 C 252.350 349.058,252.915 348.897,252.915 348.700 C 252.915 348.502,253.309 348.341,253.790 348.341 C 254.272 348.341,254.766 348.179,254.888 347.982 C 255.010 347.785,255.504 347.623,255.985 347.623 C 256.467 347.623,256.861 347.483,256.861 347.311 C 256.861 347.139,257.662 346.892,258.640 346.762 C 259.618 346.632,260.507 346.384,260.614 346.211 C 260.721 346.037,261.616 345.689,262.602 345.436 C 263.588 345.183,264.395 344.846,264.395 344.686 C 264.395 344.526,264.632 344.395,264.922 344.395 C 265.212 344.395,265.979 344.108,266.626 343.759 C 267.273 343.409,268.691 342.821,269.776 342.453 C 270.861 342.085,271.902 341.644,272.090 341.475 C 272.277 341.305,272.733 341.166,273.102 341.166 C 273.471 341.166,274.017 340.922,274.315 340.625 C 274.612 340.327,275.004 340.175,275.186 340.287 C 275.367 340.399,275.516 340.320,275.516 340.111 C 275.516 339.902,275.839 339.731,276.233 339.731 C 276.628 339.731,276.951 339.570,276.951 339.372 C 276.951 339.175,277.274 339.013,277.668 339.013 C 278.063 339.013,278.386 338.891,278.386 338.742 C 278.386 338.593,278.910 338.250,279.552 337.981 C 282.106 336.906,284.670 335.617,284.783 335.350 C 284.849 335.194,285.212 335.067,285.590 335.067 C 285.969 335.067,286.278 334.906,286.278 334.709 C 286.278 334.511,286.490 334.350,286.748 334.350 C 287.007 334.350,287.532 334.065,287.914 333.717 C 288.297 333.369,289.296 332.780,290.135 332.407 C 290.973 332.035,291.659 331.632,291.659 331.513 C 291.659 331.394,292.184 331.067,292.825 330.787 C 293.466 330.507,294.252 329.984,294.571 329.624 C 294.890 329.263,295.415 328.969,295.737 328.969 C 296.059 328.969,296.323 328.833,296.323 328.666 C 296.323 328.500,296.888 328.060,297.578 327.688 C 298.269 327.316,298.834 326.887,298.834 326.735 C 298.834 326.582,299.121 326.457,299.472 326.457 C 299.823 326.457,300.343 326.135,300.628 325.740 C 300.912 325.345,301.442 325.022,301.804 325.022 C 302.167 325.022,302.364 324.861,302.242 324.664 C 302.120 324.466,302.272 324.305,302.580 324.305 C 302.887 324.305,303.139 324.180,303.139 324.028 C 303.139 323.875,303.704 323.446,304.395 323.074 C 305.085 322.703,305.650 322.262,305.650 322.096 C 305.650 321.930,305.892 321.794,306.188 321.794 C 306.484 321.794,306.726 321.632,306.726 321.435 C 306.726 321.238,306.886 321.076,307.081 321.076 C 307.400 321.076,308.224 320.490,309.367 319.449 C 309.592 319.244,310.419 318.599,311.204 318.014 C 311.990 317.429,313.326 316.265,314.173 315.426 C 315.021 314.587,315.855 313.901,316.028 313.901 C 316.201 313.901,317.665 312.610,319.283 311.031 C 320.900 309.453,322.341 308.161,322.486 308.161 C 322.630 308.161,322.961 307.766,323.220 307.282 C 323.478 306.798,323.788 306.435,323.908 306.475 C 324.028 306.514,324.153 306.406,324.186 306.233 C 324.219 306.060,324.627 305.656,325.094 305.336 C 326.764 304.189,327.864 303.024,327.643 302.637 C 327.520 302.420,327.554 302.365,327.719 302.514 C 328.021 302.789,329.686 301.458,329.686 300.941 C 329.686 300.788,330.897 299.452,332.377 297.972 C 333.857 296.492,335.067 295.152,335.067 294.994 C 335.067 294.835,335.952 293.778,337.032 292.644 C 338.113 291.511,338.901 290.583,338.783 290.583 C 338.666 290.583,339.049 290.093,339.635 289.493 C 340.221 288.894,340.925 287.966,341.200 287.430 C 341.474 286.895,341.983 286.196,342.329 285.877 C 342.676 285.558,342.960 285.188,342.960 285.054 C 342.960 284.920,343.380 284.390,343.894 283.876 C 344.408 283.362,344.989 282.482,345.185 281.919 C 345.381 281.357,345.687 280.897,345.865 280.897 C 346.043 280.897,346.188 280.690,346.188 280.438 C 346.188 280.186,346.511 279.746,346.906 279.462 C 347.300 279.177,347.623 278.693,347.623 278.386 C 347.623 278.078,347.946 277.594,348.341 277.309 C 348.735 277.025,349.058 276.522,349.058 276.192 C 349.058 275.862,349.260 275.514,349.507 275.419 C 349.753 275.324,350.359 274.421,350.852 273.413 C 351.345 272.405,351.870 271.578,352.018 271.575 C 352.166 271.572,352.287 271.327,352.287 271.031 C 352.287 270.735,352.429 270.493,352.602 270.493 C 352.776 270.493,353.118 270.009,353.363 269.417 C 353.608 268.825,353.951 268.341,354.124 268.341 C 354.298 268.341,354.439 268.038,354.439 267.667 C 354.439 267.297,354.682 266.793,354.978 266.547 C 355.274 266.301,355.516 265.878,355.516 265.606 C 355.516 265.334,355.677 265.112,355.874 265.112 C 356.072 265.112,356.233 264.789,356.233 264.395 C 356.233 264.000,356.395 263.677,356.592 263.677 C 356.789 263.677,356.951 263.354,356.951 262.960 C 356.951 262.565,357.082 262.242,357.242 262.242 C 357.403 262.242,357.756 261.677,358.027 260.987 C 358.298 260.296,358.651 259.731,358.811 259.731 C 358.972 259.731,359.103 259.418,359.103 259.035 C 359.103 258.652,359.252 258.246,359.434 258.134 C 359.616 258.021,359.871 257.447,360.001 256.857 C 360.130 256.267,360.385 255.785,360.567 255.785 C 360.748 255.785,360.897 255.372,360.897 254.867 C 360.897 254.346,361.052 254.045,361.256 254.170 C 361.453 254.292,361.614 254.069,361.614 253.675 C 361.614 253.280,361.776 252.857,361.973 252.735 C 362.170 252.613,362.332 252.200,362.332 251.817 C 362.332 251.434,362.493 251.121,362.691 251.121 C 362.888 251.121,363.049 250.909,363.049 250.650 C 363.049 250.391,363.353 249.544,363.725 248.767 C 364.096 247.990,364.512 246.831,364.649 246.192 C 364.786 245.553,365.047 244.939,365.229 244.826 C 365.412 244.713,365.561 244.227,365.561 243.746 C 365.561 243.264,365.696 242.870,365.862 242.870 C 366.028 242.870,366.379 242.184,366.642 241.345 C 366.905 240.507,367.254 239.667,367.417 239.480 C 367.580 239.292,367.713 238.846,367.713 238.488 C 367.713 238.131,367.869 237.557,368.060 237.215 C 368.699 236.070,369.507 233.172,369.512 232.005 C 369.516 231.129,369.601 230.981,369.865 231.390 C 370.120 231.784,370.215 231.520,370.219 230.404 C 370.222 229.565,370.386 228.879,370.583 228.879 C 370.780 228.879,370.942 228.475,370.942 227.982 C 370.942 227.489,371.103 227.085,371.300 227.085 C 371.498 227.085,371.659 226.439,371.659 225.650 C 371.659 224.861,371.821 224.215,372.018 224.215 C 372.215 224.215,372.377 223.660,372.377 222.981 C 372.377 222.302,372.521 221.657,372.698 221.548 C 373.044 221.334,373.213 220.440,373.869 215.336 C 374.104 213.511,374.430 212.018,374.592 212.018 C 374.755 212.018,374.888 211.220,374.888 210.245 C 374.888 209.270,375.049 208.373,375.247 208.251 C 375.444 208.129,375.605 207.241,375.605 206.278 C 375.605 205.315,375.743 204.442,375.911 204.337 C 376.080 204.233,376.251 202.897,376.291 201.368 C 376.332 199.839,376.511 198.412,376.690 198.197 C 377.156 197.635,377.154 161.906,376.688 161.618 C 376.487 161.494,376.323 160.282,376.323 158.924 C 376.323 157.566,376.161 156.355,375.964 156.233 C 375.767 156.111,375.605 154.981,375.605 153.722 C 375.605 152.463,375.444 151.333,375.247 151.211 C 375.049 151.089,374.888 150.191,374.888 149.216 C 374.888 148.242,374.747 147.444,374.576 147.444 C 374.404 147.444,374.152 146.274,374.016 144.843 C 373.879 143.413,373.604 141.596,373.403 140.807 C 373.202 140.018,372.891 138.807,372.712 138.117 C 372.533 137.426,372.344 136.538,372.292 136.143 C 372.240 135.749,372.081 135.339,371.940 135.233 C 371.798 135.126,371.642 134.508,371.592 133.860 C 371.543 133.211,371.376 132.603,371.222 132.508 C 371.068 132.412,370.942 131.850,370.942 131.258 C 370.942 130.632,370.792 130.275,370.583 130.404 C 370.373 130.533,370.224 130.161,370.224 129.507 C 370.224 128.852,370.075 128.480,369.865 128.610 C 369.655 128.740,369.500 128.341,369.491 127.644 C 369.482 126.992,369.243 125.812,368.958 125.022 C 368.674 124.233,368.439 123.305,368.436 122.960 C 368.433 122.614,368.269 122.332,368.072 122.332 C 367.874 122.332,367.713 121.928,367.713 121.435 C 367.713 120.942,367.552 120.538,367.354 120.538 C 367.157 120.538,366.996 120.213,366.996 119.816 C 366.996 119.418,366.834 118.773,366.637 118.381 C 366.439 117.989,366.117 117.347,365.919 116.956 C 365.722 116.564,365.561 115.999,365.561 115.700 C 365.561 115.401,365.399 115.157,365.202 115.157 C 365.004 115.157,364.843 114.836,364.843 114.443 C 364.843 113.570,363.030 108.925,362.624 108.759 C 362.463 108.694,362.332 108.443,362.332 108.203 C 362.332 107.566,361.481 105.836,361.166 105.832 C 361.018 105.831,360.897 105.608,360.897 105.336 C 360.897 104.244,357.779 97.653,356.867 96.819 C 356.518 96.500,356.233 95.975,356.233 95.653 C 356.233 95.331,356.072 95.067,355.874 95.067 C 355.677 95.067,355.516 94.744,355.516 94.350 C 355.516 93.955,355.354 93.632,355.157 93.632 C 354.960 93.632,354.832 93.511,354.873 93.363 C 354.995 92.930,353.671 90.404,353.322 90.404 C 353.148 90.404,353.004 90.081,353.004 89.686 C 353.004 89.291,352.843 88.969,352.646 88.969 C 352.448 88.969,352.287 88.762,352.287 88.510 C 352.287 88.257,351.964 87.818,351.570 87.534 C 351.175 87.249,350.852 86.749,350.852 86.422 C 350.852 86.095,350.610 85.627,350.314 85.381 C 350.018 85.136,349.776 84.712,349.776 84.440 C 349.776 84.169,349.625 83.946,349.441 83.946 C 349.257 83.946,349.003 83.618,348.875 83.217 C 348.748 82.816,348.253 82.097,347.775 81.619 C 347.297 81.141,346.906 80.641,346.906 80.508 C 346.906 80.374,346.341 79.479,345.650 78.517 C 344.960 77.556,344.395 76.633,344.395 76.465 C 344.395 76.297,343.910 75.653,343.318 75.034 C 342.726 74.415,342.242 73.804,342.242 73.678 C 342.242 73.551,341.943 73.186,341.578 72.867 C 341.212 72.548,340.661 71.803,340.353 71.211 C 339.734 70.023,338.796 68.978,337.627 68.172 C 337.206 67.882,336.861 67.439,336.861 67.188 C 336.861 66.687,335.878 65.434,334.081 63.643 C 333.439 63.004,332.915 62.379,332.915 62.253 C 332.915 61.915,319.368 48.430,319.028 48.430 C 318.868 48.430,318.536 48.108,318.290 47.713 C 318.043 47.318,317.707 46.996,317.543 46.996 C 317.379 46.996,316.475 46.269,315.535 45.381 C 314.595 44.493,313.601 43.767,313.326 43.767 C 313.050 43.767,312.825 43.616,312.825 43.431 C 312.825 42.948,310.219 40.545,309.692 40.541 C 309.281 40.538,308.262 39.732,306.177 37.758 C 305.708 37.314,305.144 36.951,304.923 36.951 C 304.703 36.951,304.298 36.749,304.023 36.502 C 302.878 35.475,302.436 35.157,302.157 35.157 C 301.995 35.157,301.630 34.834,301.345 34.439 C 301.061 34.045,300.615 33.722,300.354 33.722 C 300.094 33.722,299.557 33.420,299.161 33.052 C 298.766 32.684,297.849 32.078,297.123 31.707 C 296.398 31.335,295.487 30.749,295.099 30.404 C 294.711 30.058,294.182 29.776,293.923 29.776 C 293.665 29.776,293.453 29.614,293.453 29.417 C 293.453 29.220,293.211 29.058,292.915 29.058 C 292.619 29.058,292.377 28.916,292.377 28.743 C 292.377 28.570,291.892 28.227,291.300 27.982 C 290.709 27.737,290.224 27.385,290.224 27.200 C 290.224 27.015,290.076 26.955,289.894 27.067 C 289.713 27.179,289.350 27.058,289.087 26.798 C 288.825 26.537,287.641 25.856,286.457 25.283 C 285.274 24.710,284.251 24.115,284.185 23.959 C 284.120 23.804,283.837 23.677,283.558 23.677 C 283.278 23.677,283.049 23.516,283.049 23.318 C 283.049 23.121,282.726 22.960,282.332 22.960 C 281.937 22.960,281.614 22.798,281.614 22.601 C 281.614 22.404,281.322 22.242,280.965 22.242 C 280.609 22.242,280.003 22.005,279.620 21.715 C 279.237 21.426,278.641 21.184,278.296 21.177 C 277.951 21.171,277.668 21.004,277.668 20.807 C 277.668 20.610,277.345 20.448,276.951 20.448 C 276.556 20.448,276.233 20.287,276.233 20.090 C 276.233 19.892,275.951 19.727,275.605 19.723 C 275.260 19.719,274.574 19.399,274.081 19.013 C 273.587 18.628,272.906 18.308,272.567 18.304 C 272.228 18.300,271.379 17.975,270.681 17.583 C 269.983 17.191,269.333 16.864,269.237 16.857 C 268.237 16.781,266.906 16.348,266.906 16.099 C 266.906 15.926,266.412 15.785,265.808 15.785 C 265.168 15.785,264.803 15.635,264.933 15.426 C 265.055 15.229,264.832 15.067,264.437 15.067 C 264.042 15.067,263.620 14.906,263.498 14.709 C 263.376 14.511,262.882 14.350,262.400 14.350 C 261.919 14.350,261.525 14.188,261.525 13.991 C 261.525 13.794,261.121 13.632,260.628 13.632 C 260.135 13.632,259.731 13.471,259.731 13.274 C 259.731 13.076,259.247 12.915,258.655 12.915 C 258.063 12.915,257.578 12.765,257.578 12.582 C 257.578 12.399,256.691 12.138,255.605 12.002 C 254.520 11.867,253.632 11.613,253.632 11.438 C 253.632 11.264,253.148 11.121,252.556 11.121 C 251.964 11.121,251.480 10.960,251.480 10.762 C 251.480 10.565,251.086 10.404,250.604 10.404 C 250.123 10.404,249.629 10.242,249.507 10.045 C 249.385 9.848,248.820 9.686,248.251 9.686 C 247.682 9.686,247.117 9.525,246.996 9.327 C 246.874 9.130,246.218 8.969,245.539 8.969 C 244.860 8.969,244.305 8.823,244.305 8.646 C 244.305 8.469,243.619 8.244,242.780 8.147 C 241.942 8.051,240.610 7.796,239.821 7.582 C 239.031 7.367,237.529 7.188,236.481 7.183 C 235.305 7.178,234.661 7.038,234.798 6.816 C 234.932 6.599,234.443 6.457,233.564 6.457 C 232.763 6.457,232.108 6.296,232.108 6.099 C 232.108 5.897,231.115 5.740,229.848 5.740 C 228.604 5.740,227.434 5.592,227.247 5.411 C 226.871 5.049,224.085 4.733,218.744 4.445 C 216.821 4.342,215.247 4.110,215.247 3.931 C 215.247 3.741,209.409 3.605,201.240 3.605 C 192.224 3.605,187.310 3.729,187.449 3.955 M200.717 24.753 L 200.717 33.184 196.771 33.445 C 190.178 33.882,185.064 34.353,182.422 34.767 C 181.040 34.983,178.296 35.409,176.323 35.713 C 174.350 36.017,171.928 36.495,170.942 36.773 C 169.955 37.052,167.695 37.614,165.919 38.022 C 164.143 38.430,162.368 38.904,161.973 39.074 C 161.578 39.244,159.561 39.869,157.489 40.462 C 154.114 41.428,150.132 42.803,147.892 43.775 C 147.448 43.968,146.722 44.269,146.278 44.443 C 144.280 45.230,141.233 46.614,137.308 48.519 L 133.058 50.581 132.191 49.596 C 131.714 49.053,131.314 48.448,131.304 48.251 C 131.293 48.054,130.969 47.489,130.583 46.996 C 130.197 46.502,129.878 45.816,129.873 45.471 C 129.869 45.126,129.702 44.843,129.503 44.843 C 129.167 44.843,128.213 43.205,126.789 40.179 C 126.463 39.489,126.091 38.843,125.960 38.744 C 125.464 38.369,124.484 36.593,124.484 36.069 C 124.484 35.352,130.902 32.111,139.193 28.641 C 139.686 28.434,140.574 28.056,141.166 27.800 C 141.758 27.543,142.565 27.214,142.960 27.068 C 146.722 25.673,148.451 25.055,149.058 24.889 C 149.453 24.782,150.099 24.562,150.493 24.402 C 152.081 23.758,160.399 21.482,163.767 20.770 C 165.740 20.352,167.677 19.880,168.072 19.719 C 168.970 19.353,177.762 17.935,179.127 17.936 C 179.682 17.937,180.433 17.779,180.795 17.585 C 181.158 17.391,182.963 17.137,184.808 17.021 C 190.929 16.636,198.550 16.261,199.641 16.292 L 200.717 16.323 200.717 24.753 M215.408 16.903 C 215.596 17.077,216.564 17.221,217.561 17.223 C 220.790 17.228,234.209 19.061,235.874 19.725 C 236.269 19.882,238.206 20.352,240.179 20.770 C 243.494 21.470,251.786 23.735,253.453 24.395 C 253.848 24.551,255.462 25.113,257.040 25.644 C 258.619 26.175,260.233 26.751,260.628 26.926 C 261.022 27.100,262.637 27.745,264.215 28.359 C 265.794 28.972,269.951 30.860,273.453 32.553 C 279.693 35.569,280.463 36.156,279.484 37.148 C 279.299 37.335,278.694 38.319,278.139 39.333 C 274.674 45.665,271.684 50.565,271.280 50.574 C 271.022 50.579,268.924 49.628,266.616 48.461 C 260.337 45.285,251.809 41.890,245.561 40.078 C 244.574 39.792,242.637 39.224,241.256 38.817 C 236.460 37.402,229.391 35.899,224.753 35.309 C 222.188 34.983,219.767 34.572,219.372 34.396 C 218.687 34.091,215.790 33.875,207.265 33.492 L 203.408 33.318 203.408 24.778 L 203.408 16.238 209.238 16.412 C 212.444 16.508,215.221 16.728,215.408 16.903 M122.714 40.000 C 123.170 40.789,123.956 42.184,124.462 43.099 C 124.967 44.014,126.027 45.846,126.816 47.172 C 130.170 52.802,130.467 51.851,124.126 55.787 C 121.659 57.318,119.076 59.007,118.386 59.540 C 117.695 60.073,116.888 60.597,116.592 60.706 C 116.296 60.814,114.399 62.213,112.377 63.815 C 110.355 65.416,108.569 66.726,108.409 66.726 C 108.248 66.726,107.759 67.211,107.321 67.803 C 106.884 68.395,106.369 68.879,106.178 68.879 C 105.482 68.879,94.514 79.573,91.659 83.036 C 90.870 83.993,89.700 85.303,89.058 85.946 C 88.417 86.589,87.892 87.218,87.892 87.344 C 87.892 87.469,87.034 88.653,85.984 89.974 C 84.934 91.296,82.978 93.991,81.637 95.964 C 78.243 100.959,78.602 100.709,76.541 99.513 C 75.583 98.957,74.744 98.375,74.679 98.220 C 74.613 98.064,74.385 97.937,74.172 97.937 C 73.959 97.937,72.560 97.221,71.063 96.345 C 69.566 95.469,67.937 94.531,67.444 94.260 C 65.259 93.059,64.215 92.347,64.063 91.954 C 63.887 91.502,68.646 84.088,70.493 81.933 C 70.691 81.703,71.175 81.059,71.570 80.503 C 75.890 74.411,92.281 57.750,99.593 52.018 C 104.617 48.079,113.510 41.982,119.283 38.518 C 121.285 37.317,121.127 37.248,122.714 40.000 M286.685 39.758 C 296.160 45.536,303.742 51.139,311.008 57.735 C 314.445 60.856,325.381 71.727,325.381 72.024 C 325.381 72.113,326.166 73.045,327.126 74.095 C 328.086 75.145,329.865 77.267,331.080 78.809 C 332.295 80.352,333.420 81.781,333.581 81.984 C 335.176 84.007,340.090 91.527,340.090 91.946 C 340.090 92.271,337.969 93.694,334.823 95.482 C 331.926 97.129,328.818 98.913,327.917 99.447 C 325.678 100.774,325.765 100.812,323.586 97.543 C 321.943 95.079,318.477 90.435,316.580 88.157 C 316.291 87.810,316.054 87.420,316.054 87.290 C 316.054 87.161,315.665 86.638,315.191 86.129 C 314.716 85.619,312.720 83.426,310.756 81.256 C 306.054 76.060,297.401 67.883,295.192 66.547 C 294.865 66.350,293.251 65.134,291.604 63.845 C 288.939 61.759,285.901 59.619,281.435 56.681 C 280.646 56.162,278.661 54.961,277.025 54.014 C 275.389 53.066,274.097 52.185,274.155 52.057 C 274.257 51.830,276.296 48.248,278.647 44.164 C 279.284 43.058,280.007 41.749,280.254 41.256 C 280.501 40.762,280.805 40.278,280.929 40.179 C 281.054 40.081,281.424 39.475,281.753 38.834 C 282.541 37.296,282.691 37.324,286.685 39.758 M212.197 44.224 C 212.789 44.309,215.251 44.501,217.668 44.651 C 220.085 44.800,222.063 45.066,222.063 45.241 C 222.063 45.417,222.860 45.561,223.835 45.561 C 224.810 45.561,225.708 45.722,225.830 45.919 C 225.952 46.117,226.755 46.278,227.615 46.278 C 228.474 46.278,229.232 46.431,229.297 46.619 C 229.363 46.806,230.103 46.999,230.942 47.048 C 231.780 47.096,232.466 47.266,232.466 47.424 C 232.466 47.583,233.022 47.713,233.701 47.713 C 234.380 47.713,235.024 47.856,235.131 48.030 C 235.239 48.205,235.773 48.431,236.318 48.532 C 236.863 48.634,237.713 48.823,238.206 48.954 C 238.700 49.084,239.712 49.284,240.457 49.397 C 241.202 49.511,241.898 49.743,242.003 49.914 C 242.109 50.085,242.589 50.224,243.070 50.224 C 243.552 50.224,243.946 50.386,243.946 50.583 C 243.946 50.780,244.350 50.942,244.843 50.942 C 245.336 50.942,245.740 51.103,245.740 51.300 C 245.740 51.498,246.224 51.659,246.816 51.659 C 247.408 51.659,247.892 51.821,247.892 52.018 C 247.892 52.215,248.206 52.377,248.589 52.377 C 248.972 52.377,249.361 52.500,249.454 52.650 C 249.547 52.800,250.686 53.244,251.986 53.636 C 253.286 54.029,254.350 54.471,254.350 54.619 C 254.350 54.767,254.560 54.888,254.816 54.888 C 255.476 54.888,257.214 55.732,257.217 56.054 C 257.218 56.202,257.623 56.323,258.117 56.323 C 258.610 56.323,259.013 56.484,259.013 56.682 C 259.013 56.879,259.336 57.040,259.731 57.040 C 260.126 57.040,260.448 57.202,260.448 57.399 C 260.448 57.596,260.771 57.758,261.166 57.758 C 261.561 57.758,261.883 57.912,261.883 58.100 C 261.883 58.289,262.448 58.549,263.139 58.678 C 263.830 58.808,264.395 59.057,264.395 59.233 C 264.395 59.408,264.644 59.552,264.948 59.552 C 265.252 59.552,265.820 59.849,266.209 60.212 C 266.599 60.575,267.359 61.099,267.898 61.377 C 268.438 61.655,268.960 61.972,269.058 62.081 C 269.157 62.190,269.836 62.558,270.568 62.898 C 271.299 63.239,271.995 63.674,272.114 63.866 C 272.232 64.058,272.643 64.215,273.026 64.215 C 273.409 64.215,273.722 64.349,273.722 64.513 C 273.722 64.677,274.161 65.041,274.698 65.321 C 275.234 65.601,275.949 66.072,276.286 66.368 C 277.473 67.409,277.925 67.731,278.957 68.272 C 279.531 68.572,280.356 69.155,280.792 69.566 C 281.228 69.977,281.679 70.314,281.795 70.314 C 281.911 70.314,282.409 70.717,282.903 71.211 C 283.396 71.704,283.948 72.108,284.129 72.108 C 284.311 72.108,284.955 72.592,285.561 73.184 C 286.166 73.776,286.817 74.260,287.008 74.260 C 287.198 74.260,287.354 74.422,287.354 74.619 C 287.354 74.816,287.521 74.978,287.725 74.978 C 287.929 74.978,289.141 76.027,290.417 77.309 C 291.693 78.592,292.910 79.641,293.121 79.641 C 293.332 79.641,293.746 79.883,294.042 80.179 C 294.338 80.475,294.457 80.717,294.306 80.717 C 294.155 80.717,294.577 81.161,295.242 81.704 C 296.994 83.132,301.704 88.016,301.704 88.405 C 301.704 88.523,302.753 89.659,304.036 90.928 C 305.318 92.198,306.368 93.497,306.368 93.815 C 306.368 94.132,306.529 94.292,306.726 94.170 C 306.924 94.048,307.085 94.127,307.085 94.345 C 307.085 94.563,307.489 95.145,307.982 95.638 C 308.475 96.131,308.880 96.649,308.881 96.788 C 308.881 96.927,309.325 97.532,309.867 98.134 C 310.409 98.735,311.013 99.477,311.211 99.782 C 313.839 103.853,315.843 106.750,316.097 106.846 C 316.271 106.912,316.413 107.275,316.413 107.653 C 316.413 108.031,316.547 108.341,316.712 108.341 C 316.876 108.341,317.475 109.229,318.043 110.314 C 318.611 111.399,319.203 112.287,319.358 112.287 C 319.514 112.287,319.641 112.610,319.641 113.004 C 319.641 113.399,319.803 113.722,320.000 113.722 C 320.197 113.722,320.359 113.964,320.359 114.260 C 320.359 114.556,320.520 114.798,320.717 114.798 C 320.915 114.798,321.076 115.121,321.076 115.516 C 321.076 115.910,321.197 116.235,321.345 116.237 C 321.493 116.240,321.917 116.926,322.287 117.762 C 322.656 118.598,323.423 120.233,323.991 121.396 C 324.558 122.558,325.022 123.728,325.022 123.997 C 325.022 124.265,325.184 124.484,325.381 124.484 C 325.578 124.484,325.740 124.726,325.740 125.022 C 325.740 125.318,325.901 125.561,326.099 125.561 C 326.296 125.561,326.457 126.045,326.457 126.637 C 326.457 127.229,326.578 127.714,326.726 127.716 C 326.874 127.718,327.297 128.686,327.666 129.869 C 328.034 131.051,328.478 132.018,328.652 132.018 C 328.826 132.018,328.969 132.502,328.969 133.094 C 328.969 133.686,329.130 134.170,329.327 134.170 C 329.525 134.170,329.686 134.655,329.686 135.247 C 329.686 135.839,329.848 136.323,330.045 136.323 C 330.242 136.323,330.404 136.726,330.404 137.220 C 330.404 137.713,330.565 138.117,330.762 138.117 C 330.960 138.117,331.121 138.601,331.121 139.193 C 331.121 139.785,331.283 140.269,331.480 140.269 C 331.677 140.269,331.839 140.735,331.839 141.304 C 331.839 142.225,332.184 143.646,333.296 147.290 C 333.481 147.896,333.632 148.730,333.632 149.144 C 333.632 149.557,333.785 149.949,333.972 150.015 C 334.159 150.081,334.350 150.901,334.398 151.839 C 334.445 152.776,334.615 153.543,334.776 153.543 C 334.936 153.543,335.067 154.269,335.067 155.157 C 335.067 156.045,335.229 156.771,335.426 156.771 C 335.628 156.771,335.785 157.788,335.785 159.103 C 335.785 160.386,335.922 161.435,336.090 161.435 C 336.257 161.435,336.507 163.251,336.644 165.471 C 336.781 167.691,337.007 171.121,337.146 173.094 C 337.471 177.705,337.468 182.612,337.136 186.906 C 336.991 188.780,336.765 192.205,336.633 194.517 C 336.501 196.828,336.256 198.635,336.089 198.531 C 335.922 198.428,335.785 199.321,335.785 200.517 C 335.785 201.727,335.626 202.691,335.426 202.691 C 335.229 202.691,335.067 203.484,335.067 204.454 C 335.067 205.425,334.914 206.272,334.728 206.338 C 334.541 206.404,334.349 207.224,334.302 208.161 C 334.255 209.099,334.102 209.865,333.963 209.865 C 333.725 209.865,333.511 210.800,333.043 213.901 C 332.931 214.641,332.722 215.247,332.578 215.247 C 332.434 215.247,332.299 215.448,332.276 215.695 C 332.119 217.429,331.694 219.193,331.433 219.193 C 331.261 219.193,331.121 219.848,331.121 220.649 C 331.121 221.528,330.979 222.017,330.762 221.883 C 330.559 221.758,330.404 222.061,330.404 222.585 C 330.404 223.092,330.262 223.788,330.090 224.130 C 328.687 226.915,328.251 227.963,328.251 228.554 C 328.251 228.930,328.108 229.238,327.933 229.238 C 327.758 229.238,327.506 229.964,327.373 230.852 C 327.240 231.740,326.979 232.466,326.794 232.466 C 326.609 232.466,326.457 232.789,326.457 233.184 C 326.457 233.578,326.314 233.901,326.138 233.901 C 325.963 233.901,325.605 234.628,325.342 235.516 C 325.080 236.404,324.740 237.130,324.585 237.130 C 324.431 237.130,324.305 237.439,324.305 237.818 C 324.305 238.196,324.184 238.559,324.036 238.625 C 323.667 238.789,322.511 241.337,322.511 241.985 C 322.511 242.275,322.350 242.511,322.152 242.511 C 321.955 242.511,321.794 242.753,321.794 243.049 C 321.794 243.345,321.632 243.587,321.435 243.587 C 321.238 243.587,321.076 243.830,321.076 244.126 C 321.076 244.422,320.954 244.664,320.805 244.664 C 320.656 244.664,320.306 245.188,320.027 245.830 C 319.748 246.471,319.426 247.076,319.311 247.175 C 319.197 247.274,318.620 248.323,318.031 249.507 C 317.441 250.691,316.674 251.920,316.326 252.239 C 315.979 252.558,315.695 253.002,315.695 253.226 C 315.695 253.449,315.574 253.634,315.426 253.636 C 315.278 253.639,314.848 254.284,314.471 255.071 C 314.094 255.858,313.650 256.502,313.485 256.502 C 313.319 256.502,313.184 256.744,313.184 257.040 C 313.184 257.336,313.050 257.578,312.886 257.578 C 312.722 257.578,312.359 258.022,312.079 258.565 C 311.799 259.108,311.484 259.632,311.379 259.731 C 311.273 259.830,310.546 260.717,309.764 261.704 C 308.981 262.691,308.220 263.552,308.072 263.617 C 307.924 263.683,307.803 263.962,307.803 264.237 C 307.803 264.512,306.915 265.668,305.830 266.806 C 304.744 267.945,303.857 268.995,303.857 269.141 C 303.857 269.530,292.471 280.832,290.389 282.510 C 289.410 283.299,288.118 284.429,287.516 285.021 C 286.915 285.614,285.826 286.502,285.097 286.996 C 284.368 287.489,283.771 288.013,283.769 288.161 C 283.768 288.309,283.588 288.430,283.370 288.430 C 282.769 288.430,280.901 290.109,281.186 290.394 C 281.323 290.531,281.274 290.597,281.076 290.542 C 280.523 290.386,279.103 290.949,279.103 291.325 C 279.103 291.509,278.861 291.659,278.565 291.659 C 278.269 291.659,278.027 291.821,278.027 292.018 C 278.027 292.215,277.785 292.377,277.489 292.377 C 277.193 292.377,276.951 292.538,276.951 292.735 C 276.951 292.933,276.744 293.094,276.492 293.094 C 276.239 293.094,275.800 293.417,275.516 293.812 C 275.231 294.206,274.711 294.529,274.360 294.529 C 274.009 294.529,273.722 294.661,273.722 294.821 C 273.722 294.982,273.157 295.383,272.466 295.713 C 271.776 296.042,271.211 296.475,271.211 296.676 C 271.211 296.876,270.888 297.040,270.493 297.040 C 270.099 297.040,269.775 297.161,269.775 297.309 C 269.774 297.457,268.886 297.982,267.803 298.475 C 266.719 298.969,265.832 299.470,265.831 299.590 C 265.830 299.710,264.781 300.275,263.499 300.845 C 262.217 301.416,261.167 302.004,261.167 302.152 C 261.166 302.300,260.843 302.422,260.448 302.422 C 260.054 302.422,259.731 302.583,259.731 302.780 C 259.731 302.978,259.408 303.139,259.013 303.139 C 258.619 303.139,258.296 303.300,258.296 303.498 C 258.296 303.695,257.892 303.857,257.399 303.857 C 256.906 303.857,256.502 303.978,256.502 304.127 C 256.502 304.276,255.978 304.577,255.336 304.796 C 252.581 305.734,250.575 306.566,250.463 306.816 C 250.398 306.964,250.067 307.085,249.728 307.085 C 248.950 307.085,247.181 307.894,247.178 308.251 C 247.176 308.399,246.691 308.520,246.099 308.520 C 245.507 308.520,245.022 308.659,245.022 308.829 C 245.022 309.000,244.013 309.329,242.780 309.561 C 238.933 310.286,238.565 310.387,238.565 310.713 C 238.565 310.888,238.081 311.031,237.489 311.031 C 236.897 311.031,236.413 311.176,236.413 311.352 C 236.413 311.529,235.807 311.765,235.067 311.877 C 231.905 312.355,231.046 312.559,231.194 312.798 C 231.280 312.938,230.597 313.091,229.675 313.139 C 228.753 313.186,227.914 313.353,227.811 313.509 C 227.708 313.665,226.413 313.895,224.933 314.022 C 222.066 314.266,220.803 314.468,220.335 314.757 C 220.176 314.856,218.804 314.969,217.287 315.009 C 215.770 315.049,214.529 315.220,214.529 315.389 C 214.529 315.557,212.794 315.698,210.673 315.701 C 208.552 315.704,206.579 315.856,206.290 316.039 C 205.949 316.254,205.581 316.221,205.245 315.944 C 204.842 315.611,204.693 315.615,204.575 315.964 C 204.390 316.516,198.543 316.598,198.206 316.054 C 197.911 315.575,196.592 315.593,196.592 316.075 C 196.592 316.295,196.403 316.332,196.143 316.165 C 195.897 316.005,193.919 315.762,191.749 315.625 C 187.567 315.360,182.657 314.827,181.166 314.476 C 180.673 314.359,179.018 314.159,177.489 314.031 C 175.960 313.903,174.709 313.660,174.709 313.491 C 174.709 313.322,173.982 313.184,173.094 313.184 C 172.206 313.184,171.480 313.022,171.480 312.825 C 171.480 312.628,170.834 312.466,170.045 312.466 C 169.256 312.466,168.610 312.305,168.610 312.108 C 168.610 311.910,168.152 311.749,167.593 311.749 C 167.034 311.749,166.464 311.636,166.327 311.499 C 166.032 311.204,162.058 310.052,159.372 309.483 C 158.336 309.263,157.489 308.957,157.489 308.802 C 157.489 308.647,157.085 308.520,156.592 308.520 C 156.099 308.520,155.695 308.359,155.695 308.161 C 155.695 307.964,155.211 307.803,154.619 307.803 C 154.027 307.803,153.543 307.641,153.543 307.444 C 153.543 307.247,153.220 307.085,152.825 307.085 C 152.430 307.085,152.108 306.924,152.108 306.726 C 152.108 306.529,151.704 306.368,151.211 306.368 C 150.717 306.368,150.314 306.238,150.314 306.080 C 150.314 305.922,149.265 305.492,147.982 305.126 C 146.700 304.759,145.650 304.323,145.650 304.158 C 145.650 303.992,145.327 303.857,144.933 303.857 C 144.538 303.857,144.215 303.695,144.215 303.498 C 144.215 303.300,143.925 303.139,143.570 303.139 C 143.214 303.139,142.770 303.000,142.583 302.829 C 141.898 302.206,137.406 299.910,136.872 299.910 C 136.570 299.910,136.323 299.749,136.323 299.552 C 136.323 299.354,136.000 299.193,135.605 299.193 C 135.211 299.193,134.888 299.031,134.888 298.834 C 134.888 298.637,134.646 298.475,134.350 298.475 C 134.054 298.475,133.812 298.333,133.812 298.160 C 133.812 297.987,133.327 297.644,132.735 297.399 C 132.143 297.154,131.659 296.811,131.659 296.638 C 131.659 296.465,131.356 296.323,130.986 296.323 C 130.615 296.323,130.111 296.081,129.865 295.785 C 129.620 295.489,129.196 295.247,128.925 295.247 C 128.653 295.247,128.430 295.085,128.430 294.888 C 128.430 294.691,128.188 294.529,127.892 294.529 C 127.596 294.529,127.354 294.368,127.354 294.170 C 127.354 293.973,127.112 293.812,126.816 293.812 C 126.520 293.812,126.278 293.650,126.278 293.453 C 126.278 293.256,126.036 293.094,125.740 293.094 C 125.444 293.094,125.202 292.933,125.202 292.735 C 125.202 292.538,124.960 292.377,124.664 292.377 C 124.368 292.377,124.126 292.241,124.126 292.074 C 124.126 291.908,123.561 291.468,122.870 291.096 C 122.179 290.724,121.614 290.295,121.614 290.143 C 121.614 289.990,121.361 289.865,121.051 289.865 C 120.741 289.865,120.245 289.623,119.949 289.327 C 119.653 289.031,119.540 288.789,119.699 288.789 C 119.857 288.789,119.344 288.353,118.559 287.820 C 117.106 286.835,116.600 286.450,115.708 285.650 C 115.433 285.404,115.108 285.202,114.986 285.202 C 114.864 285.202,113.965 284.402,112.987 283.425 C 112.010 282.448,111.211 281.719,111.211 281.805 C 111.211 282.050,109.349 280.337,104.905 276.004 C 102.651 273.806,100.806 271.869,100.805 271.699 C 100.804 271.529,99.674 270.188,98.294 268.720 C 96.914 267.251,95.785 265.910,95.785 265.739 C 95.785 265.568,95.598 265.544,95.371 265.684 C 95.142 265.826,95.053 265.784,95.172 265.592 C 95.291 265.400,94.993 264.817,94.510 264.296 C 94.027 263.776,93.632 263.255,93.632 263.138 C 93.632 263.022,93.243 262.538,92.767 262.062 C 92.291 261.586,91.538 260.550,91.095 259.761 C 90.651 258.971,90.152 258.409,89.987 258.511 C 89.821 258.613,89.686 258.424,89.686 258.090 C 89.686 257.756,89.401 257.222,89.053 256.903 C 88.705 256.584,88.100 255.707,87.708 254.953 C 87.316 254.200,86.753 253.312,86.457 252.980 C 86.161 252.648,85.518 251.570,85.028 250.583 C 84.538 249.596,83.853 248.528,83.504 248.209 C 83.155 247.890,82.870 247.365,82.870 247.043 C 82.870 246.721,82.749 246.456,82.601 246.454 C 82.453 246.452,82.013 245.726,81.624 244.840 C 81.234 243.954,80.790 243.229,80.637 243.229 C 80.484 243.229,80.359 242.906,80.359 242.511 C 80.359 242.117,80.197 241.794,80.000 241.794 C 79.803 241.794,79.641 241.471,79.641 241.076 C 79.641 240.682,79.510 240.359,79.349 240.359 C 79.189 240.359,78.836 239.794,78.565 239.103 C 78.294 238.413,77.941 237.848,77.781 237.848 C 77.620 237.848,77.488 237.484,77.487 237.040 C 77.485 236.596,77.243 235.771,76.948 235.206 C 76.654 234.640,76.413 233.954,76.413 233.681 C 76.413 233.408,76.251 233.184,76.054 233.184 C 75.857 233.184,75.691 232.821,75.687 232.377 C 75.683 231.933,75.363 231.166,74.978 230.673 C 74.592 230.179,74.272 229.422,74.268 228.990 C 74.264 228.557,74.099 228.104,73.901 227.982 C 73.704 227.860,73.543 227.447,73.543 227.064 C 73.543 226.681,73.381 226.368,73.184 226.368 C 72.987 226.368,72.825 226.050,72.825 225.663 C 72.825 224.869,71.908 221.851,71.379 220.902 C 71.188 220.559,71.031 219.873,71.031 219.377 C 71.031 218.881,70.870 218.475,70.673 218.475 C 70.475 218.475,70.314 218.001,70.314 217.420 C 70.314 216.840,70.152 216.265,69.955 216.143 C 69.758 216.022,69.596 215.447,69.596 214.867 C 69.596 214.286,69.435 213.812,69.238 213.812 C 69.040 213.812,68.879 213.085,68.879 212.197 C 68.879 211.309,68.740 210.583,68.571 210.583 C 68.279 210.583,67.629 206.857,67.212 202.780 C 67.106 201.743,66.900 200.969,66.754 201.059 C 66.608 201.149,66.453 200.302,66.408 199.176 C 66.363 198.051,66.174 196.977,65.988 196.789 C 65.802 196.602,65.650 194.876,65.650 192.954 C 65.650 191.011,65.491 189.361,65.291 189.238 C 64.802 188.935,64.802 170.762,65.291 170.762 C 65.508 170.762,65.650 169.268,65.650 166.996 C 65.650 164.924,65.797 163.229,65.976 163.229 C 66.155 163.229,66.389 162.381,66.496 161.345 C 66.603 160.309,66.791 158.496,66.914 157.315 C 67.036 156.135,67.268 155.005,67.430 154.804 C 67.591 154.604,67.839 153.108,67.979 151.482 C 68.120 149.855,68.380 148.613,68.557 148.723 C 68.734 148.832,68.879 148.356,68.879 147.666 C 68.879 146.975,69.040 146.310,69.238 146.188 C 69.435 146.066,69.599 145.613,69.602 145.181 C 69.608 144.322,70.392 141.865,70.786 141.472 C 70.921 141.336,71.031 140.597,71.031 139.829 C 71.031 138.990,71.174 138.521,71.390 138.655 C 71.593 138.780,71.749 138.486,71.749 137.980 C 71.749 137.486,71.892 136.994,72.066 136.887 C 72.241 136.779,72.493 135.962,72.626 135.072 C 72.760 134.181,73.021 133.453,73.206 133.453 C 73.391 133.453,73.543 133.059,73.543 132.577 C 73.543 132.096,73.704 131.602,73.901 131.480 C 74.099 131.358,74.260 130.864,74.260 130.382 C 74.260 129.901,74.382 129.507,74.531 129.507 C 74.680 129.507,75.029 128.982,75.307 128.341 C 75.584 127.700,76.188 126.338,76.650 125.314 C 77.111 124.291,77.489 123.280,77.489 123.067 C 77.489 122.572,78.278 121.156,78.744 120.813 C 78.942 120.668,78.981 120.547,78.833 120.544 C 78.469 120.536,80.421 116.951,80.788 116.951 C 80.947 116.951,81.076 116.687,81.076 116.365 C 81.076 116.043,81.412 115.236,81.823 114.571 C 82.234 113.907,82.470 113.363,82.347 113.363 C 82.225 113.363,82.454 113.010,82.856 112.578 C 83.258 112.146,83.587 111.581,83.587 111.322 C 83.587 111.064,83.749 110.852,83.946 110.852 C 84.143 110.852,84.305 110.610,84.305 110.314 C 84.305 110.018,84.426 109.776,84.575 109.776 C 84.723 109.776,85.245 109.009,85.735 108.072 C 86.225 107.135,86.830 106.154,87.080 105.894 C 87.329 105.633,87.534 105.225,87.534 104.986 C 87.534 104.748,87.857 104.320,88.251 104.036 C 88.646 103.751,88.969 103.301,88.969 103.034 C 88.969 102.768,89.170 102.346,89.417 102.096 C 89.664 101.847,90.188 101.195,90.583 100.647 C 90.978 100.100,91.502 99.439,91.749 99.179 C 91.996 98.919,92.197 98.517,92.197 98.286 C 92.197 98.055,92.682 97.414,93.274 96.861 C 93.865 96.308,94.350 95.752,94.350 95.625 C 94.350 95.497,94.713 95.021,95.157 94.566 C 96.247 93.448,97.578 91.866,97.578 91.689 C 97.578 91.102,111.539 77.261,111.993 77.399 C 112.155 77.448,112.287 77.247,112.287 76.951 C 112.287 76.655,112.510 76.413,112.783 76.413 C 113.056 76.413,113.863 75.767,114.576 74.978 C 115.289 74.188,115.994 73.542,116.143 73.542 C 116.375 73.542,117.124 72.979,118.998 71.397 C 119.237 71.196,119.526 71.031,119.642 71.031 C 119.758 71.031,120.240 70.668,120.712 70.224 C 121.184 69.780,122.467 68.852,123.563 68.161 C 124.658 67.471,125.556 66.785,125.558 66.637 C 125.559 66.489,125.845 66.368,126.192 66.368 C 126.539 66.368,127.025 66.045,127.271 65.650 C 127.517 65.256,127.946 64.933,128.224 64.933 C 128.502 64.933,128.783 64.812,128.849 64.664 C 128.915 64.516,129.614 64.075,130.404 63.684 C 132.091 62.849,133.941 61.637,134.111 61.256 C 134.176 61.108,134.540 60.987,134.918 60.987 C 135.296 60.987,135.605 60.825,135.605 60.628 C 135.605 60.430,135.928 60.269,136.323 60.269 C 136.717 60.269,137.040 60.108,137.040 59.910 C 137.040 59.713,137.283 59.552,137.578 59.552 C 137.874 59.552,138.117 59.390,138.117 59.193 C 138.117 58.996,138.374 58.834,138.689 58.834 C 139.004 58.834,139.690 58.603,140.214 58.321 C 140.737 58.040,141.691 57.597,142.332 57.337 C 142.973 57.078,143.498 56.743,143.498 56.594 C 143.498 56.445,143.821 56.323,144.215 56.323 C 144.610 56.323,144.934 56.202,144.936 56.054 C 144.939 55.690,146.714 54.888,147.515 54.888 C 147.871 54.888,148.161 54.766,148.161 54.617 C 148.161 54.322,150.265 53.515,151.839 53.206 C 152.381 53.100,152.825 52.870,152.825 52.695 C 152.825 52.520,153.116 52.377,153.471 52.377 C 154.273 52.377,156.047 51.575,156.051 51.211 C 156.053 51.063,156.538 50.942,157.130 50.942 C 157.722 50.942,158.206 50.780,158.206 50.583 C 158.206 50.386,158.700 50.224,159.304 50.224 C 159.944 50.224,160.309 50.075,160.179 49.865 C 160.047 49.651,160.508 49.500,161.324 49.491 C 162.076 49.482,163.336 49.243,164.126 48.958 C 164.915 48.674,165.914 48.439,166.347 48.436 C 166.779 48.433,167.221 48.287,167.330 48.111 C 167.516 47.810,168.421 47.599,171.568 47.124 C 172.306 47.012,172.821 46.776,172.712 46.599 C 172.603 46.423,173.317 46.278,174.299 46.278 C 175.280 46.278,176.138 46.126,176.203 45.939 C 176.269 45.753,177.332 45.565,178.565 45.522 C 179.798 45.478,180.807 45.327,180.807 45.186 C 180.807 45.044,182.543 44.816,184.664 44.679 C 190.067 44.329,192.042 44.131,192.255 43.918 C 192.464 43.709,210.548 43.987,212.197 44.224 M345.118 99.438 C 349.507 107.127,353.695 116.316,357.108 125.740 C 357.751 127.516,358.369 129.211,358.482 129.507 C 358.594 129.803,358.772 130.448,358.876 130.942 C 358.981 131.435,359.491 133.291,360.010 135.067 C 361.607 140.534,362.852 145.647,363.417 149.058 C 363.581 150.045,363.874 151.578,364.070 152.466 C 364.598 154.869,365.503 163.164,365.782 168.161 L 366.027 172.556 357.780 172.556 L 349.532 172.556 349.116 171.642 C 348.887 171.140,348.690 169.889,348.678 168.862 C 348.632 164.804,346.277 150.402,344.736 144.753 C 344.521 143.964,344.263 142.915,344.163 142.422 C 344.063 141.928,343.850 141.202,343.688 140.807 C 343.527 140.413,343.043 138.798,342.612 137.220 C 341.928 134.712,339.936 128.919,339.035 126.816 C 338.866 126.422,338.524 125.534,338.275 124.843 C 337.677 123.182,331.428 110.446,330.090 108.161 C 329.512 107.175,328.705 105.766,328.297 105.031 L 327.554 103.695 328.351 103.136 C 330.887 101.357,340.133 96.011,341.638 95.454 C 342.497 95.136,342.974 95.682,345.118 99.438 M66.257 97.705 C 68.390 98.958,71.130 100.573,72.347 101.292 C 73.564 102.012,74.710 102.601,74.893 102.601 C 75.835 102.601,76.539 104.019,75.930 104.692 C 75.603 105.053,75.336 105.452,75.336 105.578 C 75.336 105.705,74.646 106.984,73.803 108.420 C 69.126 116.382,63.630 129.252,61.043 138.296 C 57.837 149.507,56.333 157.131,55.593 165.919 C 55.360 168.682,54.997 171.308,54.785 171.755 L 54.401 172.569 46.304 172.473 L 38.206 172.377 38.281 168.430 C 38.360 164.253,39.281 155.173,39.810 153.363 C 39.983 152.771,40.607 149.865,41.198 146.906 C 41.789 143.946,42.623 140.233,43.051 138.655 C 43.479 137.076,43.909 135.381,44.006 134.888 C 44.104 134.395,44.277 133.749,44.391 133.453 C 44.505 133.157,45.116 131.300,45.750 129.327 C 47.053 125.269,48.857 120.339,49.820 118.206 C 50.176 117.417,50.845 115.883,51.306 114.798 C 52.674 111.576,57.713 101.586,59.225 99.097 C 59.996 97.827,60.628 96.675,60.628 96.537 C 60.628 96.129,61.454 95.426,61.934 95.426 C 62.180 95.426,64.125 96.452,66.257 97.705 M54.242 175.874 C 54.720 176.253,54.843 177.720,55.028 185.291 C 55.321 197.294,56.916 208.344,59.869 218.834 C 60.286 220.314,60.786 222.090,60.981 222.780 C 61.964 226.261,64.413 233.417,64.938 234.345 C 65.133 234.688,65.291 235.149,65.291 235.370 C 65.291 235.783,66.216 237.850,69.215 244.145 L 70.934 247.752 69.697 248.563 C 69.017 249.009,67.949 249.665,67.324 250.021 C 66.699 250.377,64.028 251.901,61.387 253.406 C 58.746 254.912,56.391 256.143,56.155 256.143 C 55.806 256.143,52.502 249.652,50.859 245.740 C 49.661 242.886,49.503 242.503,48.430 239.821 C 48.233 239.327,47.926 238.561,47.748 238.117 C 46.658 235.399,44.481 228.320,43.418 224.036 C 42.977 222.260,42.476 220.484,42.304 220.090 C 41.971 219.325,40.768 213.382,40.344 210.404 C 40.203 209.417,39.964 208.368,39.813 208.072 C 39.377 207.218,38.354 197.397,37.984 190.513 C 37.798 187.049,37.556 183.021,37.447 181.562 C 37.218 178.497,37.467 176.754,38.246 175.976 C 38.978 175.244,53.329 175.153,54.242 175.874 M366.260 176.818 C 366.540 177.494,366.623 179.010,366.499 181.212 C 366.395 183.061,366.153 187.399,365.961 190.852 C 365.394 201.045,364.651 206.670,362.691 215.605 C 362.064 218.466,361.472 221.211,361.376 221.704 C 361.280 222.197,361.066 222.924,360.900 223.318 C 360.734 223.713,360.249 225.327,359.823 226.906 C 359.396 228.484,358.916 230.260,358.756 230.852 C 357.414 235.812,348.898 256.143,348.163 256.143 C 347.820 256.143,341.881 252.869,339.013 251.099 C 338.717 250.917,337.390 250.161,336.064 249.419 C 333.042 247.731,333.030 247.693,334.589 244.758 C 335.297 243.424,336.079 241.767,336.326 241.076 C 336.573 240.386,337.176 238.933,337.665 237.848 C 339.572 233.621,341.600 228.104,342.612 224.395 C 343.043 222.816,343.527 221.202,343.688 220.807 C 344.019 219.997,345.322 214.647,345.654 212.735 C 345.773 212.045,346.005 211.157,346.169 210.762 C 346.829 209.168,348.196 199.446,348.578 193.620 C 348.705 191.689,348.946 190.025,349.113 189.921 C 349.280 189.818,349.417 186.595,349.417 182.759 L 349.417 175.785 357.625 175.785 L 365.832 175.785 366.260 176.818 M74.798 254.946 C 78.318 260.833,83.815 269.008,85.011 270.135 C 85.116 270.233,85.363 270.572,85.561 270.888 C 88.240 275.177,98.624 286.167,106.042 292.564 C 110.358 296.287,115.447 300.086,120.807 303.587 C 124.028 305.691,124.493 306.211,123.789 306.924 C 123.422 307.296,118.744 315.328,118.744 315.586 C 118.744 315.674,118.296 316.420,117.747 317.245 C 117.198 318.070,116.535 319.170,116.273 319.690 C 115.859 320.513,115.698 320.582,115.024 320.228 C 114.218 319.803,105.784 314.216,105.471 313.899 C 105.372 313.800,104.323 313.001,103.139 312.124 C 101.955 311.248,100.018 309.737,98.834 308.767 C 97.650 307.797,95.963 306.417,95.085 305.699 C 93.016 304.008,78.780 289.771,77.081 287.694 C 76.364 286.816,74.983 285.130,74.013 283.946 C 73.043 282.762,71.532 280.825,70.656 279.641 C 69.779 278.457,68.981 277.408,68.881 277.309 C 68.204 276.640,62.976 268.564,60.161 263.839 C 57.853 259.964,57.740 259.112,59.424 258.270 C 60.045 257.960,61.659 257.047,63.012 256.242 C 68.249 253.124,71.943 251.130,72.287 251.236 C 72.484 251.296,73.614 252.966,74.798 254.946 M333.220 251.928 C 333.991 252.372,337.143 254.171,340.225 255.925 C 346.639 259.575,346.568 259.461,344.529 262.801 C 343.813 263.974,342.747 265.740,342.159 266.726 C 341.572 267.713,340.543 269.287,339.873 270.225 C 339.203 271.163,338.655 272.017,338.655 272.123 C 338.655 272.414,337.080 274.601,336.771 274.738 C 336.623 274.804,336.502 275.017,336.502 275.212 C 336.502 275.406,335.015 277.532,333.197 279.935 C 322.778 293.711,307.523 308.126,293.789 317.174 C 288.926 320.378,288.345 320.524,287.447 318.766 C 286.884 317.664,285.627 315.461,282.635 310.332 C 280.225 306.201,280.004 305.598,280.748 305.181 C 282.230 304.352,289.335 299.411,289.447 299.132 C 289.513 298.968,289.723 298.834,289.915 298.834 C 290.106 298.834,291.375 297.946,292.735 296.861 C 294.096 295.776,295.378 294.888,295.586 294.888 C 295.794 294.888,295.964 294.749,295.964 294.580 C 295.964 294.411,297.355 293.079,299.056 291.620 C 302.990 288.246,309.368 281.867,312.786 277.886 C 314.245 276.188,315.576 274.798,315.746 274.798 C 315.915 274.798,316.054 274.628,316.054 274.420 C 316.054 274.212,316.913 272.961,317.963 271.640 C 320.427 268.538,326.516 259.701,327.527 257.758 C 327.732 257.363,328.309 256.395,328.808 255.605 C 329.308 254.816,329.809 253.888,329.923 253.543 C 330.036 253.197,330.245 252.915,330.388 252.915 C 330.530 252.915,330.831 252.511,331.056 252.018 C 331.552 250.930,331.491 250.932,333.220 251.928 M129.444 308.841 C 143.013 316.755,160.112 322.828,178.064 326.108 C 181.560 326.747,189.925 327.582,195.254 327.824 L 200.717 328.072 200.717 336.502 L 200.717 344.933 195.874 344.827 C 189.465 344.686,182.142 344.120,177.937 343.441 C 176.063 343.138,174.206 342.847,173.812 342.794 C 173.417 342.741,172.691 342.601,172.197 342.483 C 171.704 342.365,169.525 341.936,167.354 341.529 C 165.184 341.123,163.085 340.649,162.691 340.477 C 162.296 340.305,160.520 339.803,158.744 339.362 C 153.914 338.163,146.411 335.782,142.870 334.323 C 142.426 334.141,141.619 333.813,141.076 333.595 C 140.534 333.376,139.605 332.986,139.013 332.728 C 138.422 332.469,137.211 331.962,136.323 331.601 C 131.413 329.606,118.386 322.762,118.386 322.177 C 118.386 321.443,126.464 307.444,126.887 307.444 C 126.977 307.444,128.127 308.072,129.444 308.841 M277.668 308.743 C 277.668 309.015,277.818 309.238,278.001 309.238 C 278.183 309.238,278.566 309.682,278.851 310.224 C 279.136 310.767,279.820 312.018,280.370 313.004 C 280.920 313.991,281.673 315.363,282.043 316.054 C 282.413 316.744,283.214 318.117,283.822 319.103 C 285.842 322.379,285.852 322.310,283.127 323.896 C 280.396 325.486,270.958 330.210,267.982 331.477 C 266.897 331.939,265.202 332.668,264.215 333.097 C 263.229 333.526,261.857 334.081,261.166 334.329 C 260.475 334.578,259.587 334.926,259.193 335.103 C 258.114 335.589,249.688 338.331,248.251 338.665 C 247.561 338.825,245.704 339.308,244.126 339.738 C 241.555 340.438,234.294 342.081,229.941 342.947 C 226.780 343.576,218.222 344.446,212.018 344.768 C 208.565 344.948,205.256 345.139,204.664 345.193 L 203.587 345.291 203.492 336.648 L 203.396 328.005 209.052 327.773 C 214.458 327.551,221.999 326.803,225.830 326.109 C 229.481 325.448,236.589 323.904,238.179 323.427 C 239.082 323.156,241.193 322.581,242.870 322.149 C 244.547 321.718,246.242 321.234,246.637 321.074 C 247.031 320.914,249.130 320.178,251.300 319.440 C 258.172 317.101,270.084 311.639,275.047 308.549 C 276.766 307.480,277.668 307.546,277.668 308.743 " stroke="none" fill="#248c94" fill-rule="evenodd"></path><path id="path3" d="M173.991 5.381 L 173.094 5.668 174.060 5.704 C 174.591 5.724,175.125 5.578,175.247 5.381 C 175.499 4.973,175.264 4.973,173.991 5.381 M234.798 6.816 C 234.676 7.013,234.918 7.175,235.336 7.175 C 235.754 7.175,235.996 7.013,235.874 6.816 C 235.752 6.619,235.510 6.457,235.336 6.457 C 235.162 6.457,234.920 6.619,234.798 6.816 M119.283 38.518 C 113.510 41.982,104.617 48.079,99.593 52.018 C 92.281 57.750,75.890 74.411,71.570 80.503 C 71.175 81.059,70.691 81.703,70.493 81.933 C 68.646 84.088,63.887 91.502,64.063 91.954 C 64.215 92.347,65.259 93.059,67.444 94.260 C 67.937 94.531,69.566 95.469,71.063 96.345 C 72.560 97.221,73.959 97.937,74.172 97.937 C 74.385 97.937,74.613 98.064,74.679 98.220 C 74.744 98.375,75.583 98.957,76.541 99.513 C 78.602 100.709,78.243 100.959,81.637 95.964 C 82.978 93.991,84.934 91.296,85.984 89.974 C 87.034 88.653,87.892 87.469,87.892 87.344 C 87.892 87.218,88.417 86.589,89.058 85.946 C 89.700 85.303,90.870 83.993,91.659 83.036 C 94.514 79.573,105.482 68.879,106.178 68.879 C 106.369 68.879,106.884 68.395,107.321 67.803 C 107.759 67.211,108.248 66.726,108.409 66.726 C 108.569 66.726,110.355 65.416,112.377 63.815 C 114.399 62.213,116.296 60.814,116.592 60.706 C 116.888 60.597,117.695 60.073,118.386 59.540 C 119.076 59.007,121.659 57.318,124.126 55.787 C 130.467 51.851,130.170 52.802,126.816 47.172 C 126.027 45.846,124.967 44.014,124.462 43.099 C 121.053 36.932,121.406 37.244,119.283 38.518 M281.753 38.834 C 281.424 39.475,281.054 40.081,280.929 40.179 C 280.805 40.278,280.501 40.762,280.254 41.256 C 280.007 41.749,279.284 43.058,278.647 44.164 C 276.296 48.248,274.257 51.830,274.155 52.057 C 274.097 52.185,275.389 53.066,277.025 54.014 C 278.661 54.961,280.646 56.162,281.435 56.681 C 285.901 59.619,288.939 61.759,291.604 63.845 C 293.251 65.134,294.865 66.350,295.192 66.547 C 297.401 67.883,306.054 76.060,310.756 81.256 C 312.720 83.426,314.716 85.619,315.191 86.129 C 315.665 86.638,316.054 87.161,316.054 87.290 C 316.054 87.420,316.291 87.810,316.580 88.157 C 318.477 90.435,321.943 95.079,323.586 97.543 C 325.765 100.812,325.678 100.774,327.917 99.447 C 328.818 98.913,331.926 97.129,334.823 95.482 C 337.969 93.694,340.090 92.271,340.090 91.946 C 340.090 91.527,335.176 84.007,333.581 81.984 C 333.420 81.781,332.295 80.352,331.080 78.809 C 329.865 77.267,328.086 75.145,327.126 74.095 C 326.166 73.045,325.381 72.113,325.381 72.024 C 325.381 71.308,310.253 56.845,304.574 52.132 C 299.665 48.059,284.025 37.668,282.803 37.668 C 282.554 37.668,282.081 38.193,281.753 38.834 M375.631 155.225 C 375.617 155.658,375.767 156.111,375.964 156.233 C 376.388 156.495,376.388 156.144,375.964 155.157 C 375.667 154.465,375.655 154.468,375.631 155.225 M65.650 164.305 C 65.650 164.897,65.713 165.381,65.789 165.381 C 65.865 165.381,65.999 164.897,66.085 164.305 C 66.172 163.713,66.110 163.229,65.947 163.229 C 65.784 163.229,65.650 163.713,65.650 164.305 M377.202 179.731 C 377.202 186.538,377.250 189.323,377.309 185.919 C 377.368 182.516,377.368 176.946,377.309 173.543 C 377.250 170.139,377.202 172.924,377.202 179.731 M65.650 195.674 C 65.650 196.156,65.782 196.631,65.944 196.731 C 66.106 196.831,66.168 196.437,66.083 195.855 C 65.895 194.573,65.650 194.471,65.650 195.674 M335.945 197.699 C 335.812 197.914,335.883 198.269,336.103 198.489 C 336.396 198.782,336.502 198.678,336.502 198.099 C 336.502 197.232,336.316 197.099,335.945 197.699 M68.700 252.952 C 66.924 253.956,64.364 255.437,63.012 256.242 C 61.659 257.047,60.045 257.960,59.424 258.270 C 57.740 259.112,57.853 259.964,60.161 263.839 C 62.976 268.564,68.204 276.640,68.881 277.309 C 68.981 277.408,69.779 278.457,70.656 279.641 C 71.532 280.825,73.043 282.762,74.013 283.946 C 74.983 285.130,76.364 286.816,77.081 287.694 C 78.780 289.771,93.016 304.008,95.085 305.699 C 95.963 306.417,97.650 307.797,98.834 308.767 C 100.018 309.737,101.955 311.248,103.139 312.124 C 104.323 313.001,105.372 313.800,105.471 313.899 C 105.784 314.216,114.218 319.803,115.024 320.228 C 115.698 320.582,115.859 320.513,116.273 319.690 C 116.535 319.170,117.198 318.070,117.747 317.245 C 118.296 316.420,118.744 315.674,118.744 315.586 C 118.744 315.328,123.422 307.296,123.789 306.924 C 124.493 306.211,124.028 305.691,120.807 303.587 C 115.447 300.086,110.358 296.287,106.042 292.564 C 98.624 286.167,88.240 275.177,85.561 270.888 C 85.363 270.572,85.116 270.233,85.011 270.135 C 83.815 269.008,78.318 260.833,74.798 254.946 C 72.190 250.585,72.630 250.728,68.700 252.952 M331.056 252.018 C 330.831 252.511,330.530 252.915,330.388 252.915 C 330.245 252.915,330.036 253.197,329.923 253.543 C 329.809 253.888,329.308 254.816,328.808 255.605 C 328.309 256.395,327.732 257.363,327.527 257.758 C 326.516 259.701,320.427 268.538,317.963 271.640 C 316.913 272.961,316.054 274.212,316.054 274.420 C 316.054 274.628,315.915 274.798,315.746 274.798 C 315.576 274.798,314.245 276.188,312.786 277.886 C 309.368 281.867,302.990 288.246,299.056 291.620 C 297.355 293.079,295.964 294.411,295.964 294.580 C 295.964 294.749,295.794 294.888,295.586 294.888 C 295.378 294.888,294.096 295.776,292.735 296.861 C 291.375 297.946,290.106 298.834,289.915 298.834 C 289.723 298.834,289.513 298.968,289.447 299.132 C 289.335 299.411,282.230 304.352,280.748 305.181 C 280.004 305.598,280.225 306.201,282.635 310.332 C 285.627 315.461,286.884 317.664,287.447 318.766 C 288.345 320.524,288.926 320.378,293.789 317.174 C 307.523 308.126,322.778 293.711,333.197 279.935 C 335.015 277.532,336.502 275.406,336.502 275.212 C 336.502 275.017,336.623 274.804,336.771 274.738 C 337.080 274.601,338.655 272.414,338.655 272.123 C 338.655 272.017,339.203 271.163,339.873 270.225 C 340.543 269.287,341.572 267.713,342.159 266.726 C 342.747 265.740,343.813 263.974,344.529 262.801 C 346.568 259.461,346.639 259.575,340.225 255.925 C 337.143 254.171,333.991 252.372,333.220 251.928 C 331.491 250.932,331.552 250.930,331.056 252.018 M194.865 356.143 C 198.157 356.202,203.646 356.202,207.062 356.143 C 210.478 356.084,207.785 356.036,201.076 356.035 C 194.368 356.035,191.573 356.084,194.865 356.143 " stroke="none" fill="#1cd3db" fill-rule="evenodd"></path></g></svg>